<svg
  xmlns="http://www.w3.org/2000/svg"
  aria-label="line drawing of a maze"
  viewBox="0 0 6.5 6.5"
  >
    <rect width="100%" height="100%" fill="white" />
    <path
      d="M0.25 5.25 0.25 0.25M1.25 3.25 1.25 2.25M1.25 5.25 1.25 4.25M2.25 5.25 2.25 4.25M3.25 2.25 3.25 1.25M3.25 4.25 3.25 3.25M4.25 3.25 4.25 0.25M4.25 6.25 4.25 4.25M6.25 6.25 6.25 1.25M6.25 0.25 0.25 0.25M5.25 1.25 1.25 1.25M2.25 2.25 1.25 2.25M5.25 2.25 4.25 2.25M3.25 3.25 1.25 3.25M6.25 3.25 5.25 3.25M1.25 4.25 0.25 4.25M3.25 4.25 2.25 4.25M5.25 4.25 4.25 4.25M4.25 5.25 2.25 5.25M6.25 5.25 5.25 5.25M6.25 6.25 0.25 6.25"
      stroke="black"
      stroke-width="0.25"
      stroke-linecap="round"
        ></path>
</svg>
